<svg width="40" height="30" viewBox="0 0 40 30" fill="none" xmlns="http://www.w3.org/2000/svg">
<path d="M2.85423 3.89977C5.70479 11.1478 8.19122 18.5302 10.8236 25.8585C10.9819 26.2992 11.4034 26.5907 11.8815 26.4591C12.3074 26.3419 12.6408 25.8427 12.4821 25.4012C9.84973 18.073 7.3633 10.6906 4.51274 3.44259C4.34134 3.00674 3.94316 2.70763 3.45486 2.84197C3.03905 2.95626 2.6824 3.46289 2.85423 3.89977Z" fill="white"/>
<path d="M1.8461 8.68378C1.41808 7.92431 2.06144 6.9716 2.49342 6.34131C3.07031 5.49963 3.79959 4.7584 4.57376 4.09835C6.22023 2.69465 8.3741 1.64803 10.5742 1.72715C10.6616 1.73033 10.7488 1.73704 10.836 1.74392C10.8537 1.7453 11.1281 1.7791 10.9336 1.75141C11.0826 1.77265 11.2298 1.80472 11.3756 1.84179C11.5075 1.87533 11.6362 1.92022 11.7627 1.96993C11.5594 1.89004 11.9244 2.06634 11.9919 2.1096C12.0336 2.13617 12.1879 2.25984 12.0019 2.11071C12.0452 2.14546 12.0856 2.18364 12.1259 2.22174C12.1654 2.25924 12.2018 2.29991 12.2381 2.3405C12.366 2.48361 12.1248 2.18089 12.2356 2.33646C12.2979 2.42401 12.3493 2.51895 12.3968 2.6151C12.4825 2.78831 12.3255 2.42814 12.3943 2.61037C12.4204 2.67969 12.4408 2.75107 12.4604 2.82236C12.4787 2.88875 12.5388 3.25795 12.5043 2.99015C12.5198 3.11072 12.5256 3.23232 12.5288 3.35376C12.5324 3.48164 12.527 3.60961 12.5196 3.73714C12.5157 3.80345 12.5092 3.86958 12.5029 3.93572C12.4789 4.18477 12.5123 3.89504 12.489 4.04726C12.393 4.67472 12.2063 5.28747 11.9947 5.88448C11.4645 7.37993 10.6191 8.95846 9.77874 10.4665C9.13348 11.6245 8.39921 12.7602 7.89938 13.992C7.58884 14.7572 8.56657 15.261 9.16272 14.9632C11.1028 13.9943 12.4058 12.1118 14.0839 10.7914C14.1318 10.7537 14.4032 10.5434 14.2034 10.6976C14.3049 10.6193 14.4069 10.5419 14.5092 10.4647C14.7759 10.2633 15.0457 10.0664 15.3177 9.87239C15.9523 9.41968 16.6033 8.98985 17.2717 8.58858C17.6117 8.38441 17.9581 8.19109 18.3095 8.00722C18.4827 7.91657 18.6582 7.83057 18.8346 7.74647C19.0178 7.65918 19.2249 7.57016 19.3245 7.53009C19.6529 7.39799 19.9896 7.2874 20.3327 7.19959C20.49 7.15934 20.6497 7.1289 20.81 7.10327C20.6127 7.13483 20.8596 7.10155 20.8865 7.09932C20.9838 7.09115 21.0815 7.09003 21.1791 7.09037C21.2492 7.09063 21.3193 7.09605 21.3893 7.10164C21.1689 7.08409 21.3843 7.10267 21.4281 7.11127C21.502 7.12589 21.8519 7.26409 21.6498 7.16992C21.7073 7.19675 21.7615 7.23004 21.8155 7.26323C21.9968 7.37503 21.6816 7.14309 21.8444 7.28404C21.8976 7.33014 21.945 7.38294 21.9925 7.43463C21.882 7.31466 22.0497 7.53577 22.0701 7.57429C21.9809 7.40677 22.0731 7.59915 22.0846 7.63871C22.1489 7.86196 22.0787 7.46069 22.099 7.69418C22.1054 7.76771 22.102 7.84184 22.0988 7.91537C22.0886 8.16021 22.1351 7.74311 22.0879 7.99062C22.0572 8.1517 22.0033 8.30787 21.9457 8.46104C22.0028 8.30908 21.8919 8.57422 21.8912 8.57576C21.8385 8.68584 21.7787 8.79248 21.7184 8.89852C21.1738 9.85613 20.3857 10.6505 19.571 11.4383C18.5225 12.4522 17.4786 13.4718 16.419 14.4742C13.5034 17.2328 10.4752 19.8689 7.54713 22.6138C6.73649 23.3739 7.95519 24.5878 8.76342 23.8301C10.7691 21.9497 12.82 20.1187 14.8521 18.2671C16.6991 16.5841 18.4691 14.8239 20.2952 13.1202C21.4323 12.0593 22.6059 10.9149 23.3359 9.52434C23.7162 8.79997 23.9335 7.99363 23.743 7.18144C23.5572 6.38887 22.9109 5.84776 22.196 5.5465C21.1325 5.09818 19.7904 5.50023 18.781 5.90624C17.4778 6.43032 16.2668 7.14877 15.1047 7.9324C14.1997 8.54257 13.3139 9.19531 12.4728 9.89131C11.0662 11.0552 9.9559 12.6484 8.29455 13.478C8.71569 13.8019 9.13675 14.1255 9.55789 14.4492C9.61525 14.3079 9.46673 14.6602 9.5308 14.5135C9.54766 14.4749 9.56537 14.4366 9.583 14.3985C9.6223 14.3133 9.66393 14.2293 9.70581 14.1457C9.81417 13.9289 9.92958 13.7156 10.0458 13.5029C10.3278 12.9867 10.6209 12.4764 10.9102 11.9643C11.6087 10.7278 12.2937 9.48212 12.8885 8.19177C13.8127 6.18685 15.2679 2.82933 13.3019 0.967687C12.5266 0.233075 11.4229 0.0251268 10.3916 0.00182078C8.57698 -0.0391152 6.79299 0.614571 5.24766 1.52264C3.73406 2.41206 2.42583 3.61589 1.35659 5.00169C0.372403 6.27724 -0.522083 7.98486 0.360965 9.55195C0.905345 10.518 2.39134 9.65128 1.8461 8.68378Z" fill="white"/>
<path d="M15.5249 18.8079C15.3093 20.1108 15.1702 21.4349 15.3589 22.7496C15.5644 24.1799 16.4515 25.5354 18.0508 25.4815C20.844 25.3872 20.6031 21.0147 19.9354 19.2093C19.773 18.7701 19.3588 18.4762 18.8775 18.6087C18.4548 18.725 18.1141 19.2265 18.2769 19.6666C18.4058 20.0152 18.4781 20.3828 18.5367 20.7488C18.5585 20.8845 18.5734 21.0202 18.5954 21.3166C18.6162 21.5976 18.6204 21.8795 18.6131 22.1611C18.6102 22.273 18.6027 22.3847 18.5943 22.4962C18.5899 22.5511 18.5846 22.606 18.5786 22.6608C18.5513 22.928 18.6072 22.4928 18.5642 22.753C18.5431 22.8806 18.5132 23.0066 18.48 23.1317C18.4663 23.1833 18.3388 23.5242 18.4205 23.3363C18.3845 23.4195 18.3398 23.4981 18.2933 23.5756C18.2389 23.6546 18.2463 23.6493 18.3154 23.5598C18.277 23.6095 18.2325 23.6539 18.1879 23.6978C18.1169 23.7596 18.127 23.7532 18.2185 23.6789C18.1686 23.7152 18.1134 23.7429 18.0586 23.7704C18.3046 23.6471 17.7869 23.7835 18.0509 23.7614C18.0114 23.7648 17.716 23.7408 17.9015 23.7686C17.8363 23.7589 17.5116 23.6386 17.6701 23.714C17.6287 23.6942 17.3986 23.5217 17.5461 23.6455C17.51 23.6137 17.4755 23.5801 17.4425 23.545C17.2788 23.3789 17.5303 23.6836 17.3948 23.4886C17.1599 23.1505 17.0555 22.6332 17.0176 22.2499C16.9603 21.6702 16.982 21.0828 17.0278 20.5031C17.0474 20.2547 17.0754 20.0069 17.1068 19.7596C17.0811 19.9623 17.1287 19.6111 17.136 19.5626C17.151 19.4634 17.1672 19.364 17.1835 19.265C17.26 18.8029 17.0698 18.3412 16.5829 18.2071C16.1671 18.0928 15.6015 18.3448 15.5249 18.8079Z" fill="white"/>
<path d="M20.4556 19.3798C20.7075 20.5483 20.6563 21.7469 20.6542 22.9352C20.6525 23.8967 22.1162 24.1195 22.3435 23.1638C22.5291 22.3834 22.7273 21.607 23.0162 20.8574C23.1388 20.5391 23.3671 20.1061 23.6061 19.776C23.5206 19.8941 23.6973 19.6821 23.6961 19.6833C23.721 19.6564 23.9625 19.4591 23.8308 19.5533C23.8939 19.5083 23.9628 19.4726 24.0319 19.4377C23.8325 19.5389 24.2752 19.4125 24.0369 19.4379C24.5029 19.3884 24.8969 19.0842 24.8969 18.5779C24.8969 18.1465 24.5041 17.6682 24.0369 17.7179C21.7556 17.9602 21.1225 20.8663 20.6849 22.7066C21.2479 22.7827 21.8112 22.8589 22.3742 22.9352C22.3765 21.5874 22.4001 20.2482 22.1142 18.9226C21.8806 17.8385 20.2225 18.2982 20.4556 19.3798Z" fill="white"/>
<path d="M27.9348 18.2072C26.5229 17.7476 25.1166 18.5908 24.2682 19.684C23.4526 20.735 22.7362 22.299 23.2272 23.6421C23.8035 25.2183 25.9483 25.6201 27.1527 24.5037C27.683 24.0123 27.92 23.2484 28.0804 22.5668C28.1582 22.2366 28.2182 21.9023 28.2885 21.5705C28.3215 21.4157 28.3585 21.2621 28.4001 21.1092C28.4194 21.0382 28.4419 20.9679 28.4648 20.8979C28.5391 20.67 28.4501 20.9064 28.5062 20.7892C28.0559 20.8472 27.6057 20.9053 27.1554 20.9632C27.3041 21.0783 27.3727 21.1641 27.4131 21.2266C27.5429 21.4279 27.5525 21.4903 27.623 21.7241C27.7537 22.1571 27.7883 22.5346 27.8121 22.9856C27.859 23.8741 27.8098 24.7637 27.5523 25.6183C27.0415 27.314 25.6261 28.2576 23.8642 27.9539C23.4026 27.8743 22.9395 28.0698 22.8063 28.5545C22.6912 28.9726 22.9443 29.5326 23.4069 29.6124C24.642 29.8254 25.8722 29.7264 26.9736 29.0883C28.037 28.4724 28.7277 27.4162 29.1407 26.2861C29.5208 25.2462 29.5778 24.0827 29.5321 22.9855C29.4866 21.8954 29.3011 20.467 28.3716 19.7469C27.9712 19.4369 27.2848 19.37 27.021 19.9211C26.7757 20.4332 26.657 20.9698 26.5457 21.523C26.4896 21.8025 26.4318 22.0813 26.3611 22.3573C26.2867 22.648 26.2088 22.8576 26.1443 22.9864C26.1189 23.037 25.9187 23.3249 26.0343 23.1826C26.0034 23.2191 25.9708 23.254 25.9367 23.2874C25.7781 23.4496 26.0764 23.2032 25.8875 23.3292C25.8465 23.355 25.8042 23.3783 25.7607 23.3992C25.9291 23.3124 25.7124 23.4033 25.6792 23.4118C25.5796 23.4312 25.5735 23.4328 25.6611 23.4167C25.5694 23.4253 25.4766 23.4202 25.3849 23.4158C25.2697 23.406 25.2531 23.4042 25.3354 23.4108C25.2625 23.398 25.1914 23.377 25.1207 23.3556C25.0273 23.3217 25.0322 23.3254 25.1352 23.3667C25.0764 23.3403 25.0218 23.3061 24.9674 23.2717C25.1507 23.3875 24.9209 23.2198 24.8724 23.1639C25.0693 23.3916 24.7699 22.9039 24.8857 23.1845C24.8464 23.0893 24.8229 22.988 24.8025 22.8872C24.8508 23.1262 24.8012 22.7901 24.8006 22.7238C24.8 22.6699 24.836 22.317 24.8049 22.5323C24.8227 22.4096 24.8515 22.2887 24.882 22.1686C24.9141 22.0433 24.9557 21.9208 24.9994 21.7992C25.0175 21.7497 25.0369 21.7003 25.0568 21.6514C24.9897 21.8195 25.0956 21.5761 25.102 21.5629C25.2202 21.316 25.3647 21.0823 25.5212 20.8583C25.5815 20.7775 25.5861 20.7696 25.5348 20.835C25.5849 20.7703 25.6383 20.7083 25.6917 20.6464C25.7797 20.5444 25.8748 20.449 25.9717 20.3556C26.2018 20.1336 26.1786 20.1545 26.4793 19.9812C26.5224 19.9568 26.5665 19.9338 26.6109 19.9119C26.8263 19.8025 26.4511 19.9678 26.6744 19.885C26.7859 19.8437 26.902 19.8165 27.0186 19.794C26.8064 19.835 27.1479 19.7964 27.211 19.7985C27.4444 19.8062 27.0332 19.7602 27.2653 19.8057C27.3376 19.8198 27.4076 19.8427 27.4775 19.8653C28.5355 20.21 28.9848 18.549 27.9348 18.2072Z" fill="white"/>
<path d="M30.6876 22.1325C31.5227 22.197 32.3748 21.9346 33.0311 21.4258C33.7895 20.8376 33.7138 19.6601 33.088 19.024C32.5456 18.4726 31.6161 18.2967 30.8746 18.3774C29.9534 18.4779 29.2413 19.0253 28.7642 19.8054C27.9104 21.2012 27.9516 23.3823 29.1491 24.5687C30.5688 25.9754 32.8987 25.567 34.5856 24.9684C35.0268 24.8117 35.3174 24.3872 35.1862 23.9105C35.0686 23.4832 34.5704 23.1529 34.1283 23.3099C33.1124 23.6703 31.7413 24.0827 30.7316 23.597C29.8156 23.1562 29.7885 22.0587 30.0311 21.1839C30.1495 20.7565 30.3791 20.3926 30.7028 20.1889C30.8624 20.0884 30.9447 20.0894 31.0391 20.0826C31.1548 20.0743 31.2712 20.0802 31.3868 20.0875C31.4927 20.0975 31.505 20.0989 31.4234 20.0917C31.5108 20.1061 31.5959 20.13 31.6809 20.154C31.7789 20.1902 31.7902 20.1915 31.715 20.1582C31.7647 20.1811 31.8127 20.2067 31.8596 20.235C31.9441 20.2909 31.9483 20.2928 31.8719 20.2405C31.9398 20.3129 31.9419 20.3117 31.8783 20.2369C31.9792 20.3846 31.8686 20.0396 31.864 20.2385C31.8568 20.1978 31.8665 20.1614 31.8936 20.1293C31.8127 20.3058 31.965 20.0737 31.815 20.2098C31.9337 20.1021 31.5934 20.305 31.7061 20.2598C31.5829 20.3092 31.4533 20.3416 31.3248 20.3726C31.1297 20.4196 30.9648 20.4342 30.6877 20.4127C30.2196 20.3766 29.8277 20.8313 29.8277 21.2727C29.8276 21.7687 30.2203 22.0963 30.6876 22.1325Z" fill="white"/>
<path d="M34.529 19.2084C34.7033 20.8125 34.5995 22.4408 34.961 24.0238C35.183 24.9958 36.6246 24.7425 36.6503 23.7952C36.6817 22.6434 36.7277 21.6838 37.0667 20.6096C37.3716 19.6434 37.945 19.0143 38.9437 18.9792C40.0496 18.9402 40.0533 17.22 38.9437 17.2592C37.3284 17.3161 36.1729 18.2581 35.5687 19.7201C35.0418 20.9951 34.9674 22.4317 34.9303 23.7952C35.4935 23.7189 36.0565 23.6427 36.6196 23.5666C36.2939 22.14 36.4064 20.6562 36.249 19.2084C36.1983 18.7427 35.896 18.3484 35.389 18.3484C34.9586 18.3484 34.4781 18.7415 34.529 19.2084Z" fill="white"/>
<path d="M22.1449 16.5712C27.3113 15.8816 32.5363 15.8268 37.7396 15.9405C38.8494 15.9648 38.8471 14.2446 37.7396 14.2205C32.5363 14.1068 27.3113 14.1616 22.1449 14.8512C21.6803 14.9132 21.2849 15.1954 21.2849 15.7112C21.2849 16.1329 21.679 16.6334 22.1449 16.5712Z" fill="white"/>
<path d="M22.6875 14.965C22.9895 13.3282 23.9874 11.9041 25.3226 10.9273C26.7112 9.91133 28.2854 9.51676 29.9885 9.69753C33.2818 10.0471 35.861 12.8001 37.2264 15.6292C37.4299 16.0513 38.0229 16.1603 38.403 15.9378C38.8311 15.687 38.9153 15.1833 38.7116 14.7611C37.0336 11.2842 33.9125 8.45526 29.9885 7.97753C25.9735 7.48871 21.7682 10.5001 21.029 14.5079C20.944 14.9684 21.1489 15.4336 21.6296 15.5657C22.0517 15.6819 22.6024 15.4264 22.6875 14.965Z" fill="white"/>
<path d="M25.7569 13.4465C26.3113 13.4465 26.3113 12.5865 25.7569 12.5865C25.2023 12.5865 25.2023 13.4465 25.7569 13.4465Z" fill="white"/>
<path d="M27.477 11.2678C28.0314 11.2678 28.0314 10.4078 27.477 10.4078C26.9224 10.4078 26.9224 11.2678 27.477 11.2678Z" fill="white"/>
<path d="M30.1142 11.0385C30.6688 11.0385 30.6688 10.1785 30.1142 10.1785C29.5598 10.1785 29.5598 11.0385 30.1142 11.0385Z" fill="white"/>
<path d="M33.4396 12.7585C33.9941 12.7585 33.9941 11.8985 33.4396 11.8985C32.885 11.8985 32.885 12.7585 33.4396 12.7585Z" fill="white"/>
<path d="M30.8022 12.6438C31.3568 12.6438 31.3568 11.7838 30.8022 11.7838C30.2477 11.7838 30.2477 12.6438 30.8022 12.6438Z" fill="white"/>
<path d="M28.165 13.1025C28.7194 13.1025 28.7194 12.2425 28.165 12.2425C27.6104 12.2425 27.6104 13.1025 28.165 13.1025Z" fill="white"/>
</svg>
